<svg id="svg" version="1.1" xmlns="http://www.w3.org/2000/svg" xmlns:xlink="http://www.w3.org/1999/xlink" width="400" height="404.2696629213483" viewBox="0, 0, 400,404.2696629213483"><g id="svgg"><path id="path0" d="M192.331 0.225 C 74.159 4.902,-14.095 111.018,1.700 229.438 C 16.595 341.116,119.452 418.873,230.000 402.028 C 333.959 386.187,408.027 291.246,399.209 185.132 C 390.279 77.664,298.919 -3.993,192.331 0.225 M215.955 6.607 C 249.623 9.732,279.108 19.994,306.404 38.086 C 352.947 68.935,384.670 119.331,392.130 174.270 C 392.264 175.258,392.428 176.320,392.495 176.629 C 392.571 176.981,392.538 177.107,392.408 176.966 C 392.293 176.843,392.084 175.891,391.943 174.850 C 391.801 173.810,391.660 172.942,391.629 172.922 C 390.175 171.950,340.441 143.419,328.090 136.470 C 262.827 99.758,243.280 91.653,226.292 94.263 C 217.881 95.556,214.908 97.637,203.098 110.501 C 186.596 128.478,183.850 128.272,157.528 107.085 C 139.664 92.706,127.957 89.624,111.944 95.082 C 97.981 99.842,62.638 125.272,30.342 153.796 C 17.902 164.784,8.133 173.151,7.954 172.972 C 7.649 172.667,10.009 160.427,11.603 154.045 C 31.345 75.006,98.135 16.100,178.090 7.208 C 181.590 6.819,183.470 6.658,189.775 6.204 C 193.035 5.969,212.279 6.266,215.955 6.607 M139.326 51.375 C 117.730 52.803,102.942 55.759,64.045 66.421 L 58.764 67.868 57.570 69.159 C 56.360 70.467,52.217 75.230,50.252 77.574 L 49.177 78.855 50.712 78.412 C 70.725 72.633,95.250 66.253,107.753 63.572 C 133.368 58.079,161.272 57.676,182.921 62.486 C 202.052 66.737,246.712 82.197,275.730 94.615 C 289.689 100.589,324.881 116.544,377.978 140.973 C 381.871 142.764,385.089 144.197,385.129 144.158 C 385.209 144.079,382.055 134.574,381.825 134.201 C 381.572 133.792,315.460 103.557,291.461 92.875 C 266.931 81.957,243.701 73.020,216.629 64.086 C 192.279 56.051,181.025 53.354,165.281 51.780 C 161.892 51.441,142.825 51.144,139.326 51.375 M264.270 127.401 L 273.596 129.432 281.236 132.718 L 288.876 136.005 292.507 140.816 L 296.138 145.626 296.301 147.801 C 296.726 153.464,296.178 155.955,294.507 155.955 C 293.964 155.955,293.360 156.016,293.164 156.091 C 292.842 156.215,292.809 160.264,292.809 199.678 L 292.809 243.129 293.764 243.375 C 300.246 245.043,301.538 248.314,296.116 249.332 L 295.281 249.488 295.281 259.126 L 295.281 268.764 210.787 268.764 L 126.292 268.764 126.292 261.011 L 126.292 253.258 139.326 253.258 L 152.360 253.258 152.352 251.629 L 152.344 250.000 150.618 249.213 C 146.711 247.433,146.459 245.244,150.031 244.118 L 151.236 243.738 151.236 201.182 L 151.236 158.627 149.996 156.520 L 148.756 154.413 148.816 148.739 L 148.876 143.064 153.193 139.506 L 157.510 135.948 164.317 133.227 C 168.061 131.731,171.301 130.457,171.517 130.396 C 171.878 130.294,171.910 130.544,171.910 133.471 L 171.910 136.658 181.966 150.330 C 191.761 163.647,192.027 163.984,192.209 163.293 C 192.967 160.407,199.597 158.623,214.944 157.176 C 221.878 156.522,253.440 156.559,255.171 157.223 C 255.462 157.335,255.506 156.536,255.506 151.035 L 255.506 144.719 257.303 144.719 L 259.101 144.719 259.101 141.935 L 259.101 139.151 258.371 139.024 C 257.969 138.954,256.806 138.780,255.787 138.636 L 253.933 138.375 253.933 131.748 L 253.933 125.120 254.438 125.245 C 254.716 125.314,259.140 126.285,264.270 127.401 M256.680 132.303 L 256.742 136.067 263.820 137.094 L 270.899 138.120 278.989 140.999 C 283.438 142.583,287.207 143.927,287.364 143.987 C 287.520 144.047,288.723 145.323,290.037 146.823 C 291.351 148.323,292.588 149.639,292.786 149.747 C 292.984 149.855,293.272 150.102,293.427 150.296 C 293.657 150.584,293.708 150.315,293.708 148.792 L 293.708 146.937 290.370 142.545 L 287.032 138.154 279.864 135.065 L 272.697 131.976 264.788 130.258 C 260.439 129.313,256.821 128.539,256.749 128.539 C 256.677 128.539,256.646 130.233,256.680 132.303 M164.019 136.258 L 158.938 138.315 155.214 141.348 L 151.491 144.382 151.476 147.492 L 151.461 150.602 152.154 150.018 C 152.535 149.697,154.195 148.204,155.842 146.700 L 158.837 143.966 162.733 142.884 C 164.876 142.289,166.831 141.707,167.079 141.591 C 167.326 141.475,167.905 141.319,168.365 141.243 L 169.203 141.105 169.174 137.631 C 169.159 135.721,169.136 134.167,169.123 134.180 C 169.111 134.192,166.814 135.127,164.019 136.258 M261.798 190.190 L 261.798 240.830 267.809 240.985 C 277.185 241.228,284.461 241.730,288.933 242.442 L 290.112 242.630 290.112 196.828 L 290.112 151.026 288.072 148.715 L 286.032 146.404 278.023 143.544 C 270.262 140.772,265.359 139.551,261.997 139.551 C 261.882 139.551,261.798 160.829,261.798 190.190 M171.807 141.956 C 171.577 142.878,171.050 143.354,169.959 143.629 C 168.394 144.023,168.541 144.955,170.569 147.474 L 172.150 149.438 173.266 149.438 L 174.382 149.438 174.388 150.843 L 174.394 152.247 179.276 158.307 C 182.191 161.927,184.601 164.702,185.258 165.197 C 187.034 166.536,192.358 169.047,191.747 168.258 C 191.628 168.104,187.152 162.011,181.801 154.719 C 176.450 147.427,172.047 141.431,172.018 141.394 C 171.988 141.357,171.894 141.610,171.807 141.956 M163.077 145.579 L 160.198 146.404 156.953 149.392 L 153.708 152.379 153.708 197.762 C 153.708 222.723,153.759 243.146,153.822 243.146 C 153.884 243.146,154.921 242.999,156.125 242.820 C 157.943 242.550,165.399 241.798,166.265 241.798 C 166.450 241.798,166.517 228.971,166.517 193.258 C 166.517 154.567,166.460 144.723,166.236 144.737 C 166.081 144.746,164.660 145.126,163.077 145.579 M168.989 195.808 C 168.989 241.423,168.990 241.573,169.438 241.573 C 169.886 241.573,169.888 241.423,169.888 196.215 C 169.888 151.142,169.885 150.854,169.438 150.449 C 168.989 150.043,168.989 150.057,168.989 195.808 M174.392 170.372 L 174.402 184.157 175.059 181.596 C 176.322 176.669,178.084 171.907,180.217 167.655 C 180.847 166.400,181.299 165.271,181.222 165.146 C 181.145 165.021,179.574 163.044,177.732 160.753 L 174.382 156.587 174.392 170.372 M220.337 159.462 C 210.595 160.048,200.488 161.535,196.573 162.956 L 195.281 163.426 195.281 165.746 L 195.281 168.066 196.506 167.644 C 198.270 167.037,201.544 166.394,206.180 165.742 C 215.920 164.373,215.303 164.402,234.914 164.369 L 253.086 164.338 254.295 163.686 L 255.504 163.034 255.505 161.432 L 255.506 159.830 253.427 159.691 C 251.092 159.534,222.433 159.336,220.337 159.462 M223.258 166.894 C 215.779 167.086,203.406 168.542,198.989 169.748 C 197.632 170.119,197.757 170.176,201.236 170.767 C 217.475 173.529,234.525 172.560,244.831 168.289 L 247.753 167.079 243.483 166.939 C 239.321 166.804,227.763 166.777,223.258 166.894 M250.787 168.554 C 247.524 170.216,243.209 171.933,240.449 172.668 C 224.054 177.034,195.989 174.907,185.311 168.490 C 184.328 167.899,183.491 167.416,183.450 167.416 C 183.142 167.416,180.423 173.622,179.243 177.021 C 173.962 192.227,173.851 218.889,178.993 236.969 C 179.553 238.939,180.101 240.640,180.209 240.748 C 180.322 240.861,183.365 240.816,187.338 240.641 C 195.107 240.300,231.979 240.229,246.798 240.526 L 255.506 240.700 255.506 204.058 C 255.506 168.380,255.495 167.416,255.084 167.416 C 254.853 167.416,254.372 167.376,254.017 167.326 C 253.555 167.263,252.636 167.612,250.787 168.554 M174.398 235.588 L 174.382 241.401 174.888 241.265 C 175.166 241.191,175.835 241.128,176.375 241.127 C 177.203 241.124,177.338 241.062,177.239 240.730 C 176.614 238.624,175.396 234.033,174.958 232.135 L 174.413 229.775 174.398 235.588 M191.461 243.145 C 172.108 243.860,159.332 244.818,153.483 245.989 C 150.250 246.637,151.263 247.219,154.643 246.655 C 159.997 245.763,170.133 245.012,186.966 244.261 C 195.954 243.860,218.289 243.754,237.865 244.020 C 273.186 244.500,282.382 244.905,290.449 246.333 C 294.138 246.986,294.733 247.044,295.184 246.791 C 296.673 245.958,284.157 244.267,273.258 243.829 C 256.725 243.164,203.072 242.715,191.461 243.145 M197.022 246.217 L 193.708 246.304 193.708 246.868 L 193.708 247.432 203.539 247.284 C 218.859 247.053,263.783 247.694,276.292 248.322 C 282.543 248.635,290.297 249.467,292.191 250.026 C 292.491 250.115,292.584 250.011,292.584 249.589 C 292.584 248.464,284.111 247.442,270.899 246.971 C 255.765 246.432,207.580 245.941,197.022 246.217 M181.685 246.768 C 171.920 247.237,160.983 248.057,157.079 248.611 L 155.169 248.882 155.097 249.755 L 155.025 250.627 156.333 250.472 C 163.690 249.595,175.298 248.803,186.685 248.400 L 191.011 248.246 191.011 247.382 L 191.011 246.517 188.258 246.550 C 186.744 246.569,183.787 246.667,181.685 246.768 M198.483 249.606 L 193.708 249.672 193.708 258.094 L 193.708 266.517 210.674 266.517 L 227.640 266.517 227.640 258.126 L 227.640 249.735 222.416 249.587 C 217.513 249.448,209.565 249.455,198.483 249.606 M230.337 250.674 L 230.337 251.685 241.685 251.685 L 253.034 251.685 253.034 259.101 L 253.034 266.517 272.809 266.517 L 292.584 266.517 292.584 259.475 L 292.584 252.433 290.506 252.065 C 282.600 250.666,259.236 249.670,234.213 249.664 L 230.337 249.663 230.337 250.674 M185.393 250.716 C 170.723 251.397,157.273 252.399,155.449 252.946 C 155.174 253.029,155.056 253.295,155.056 253.835 L 155.056 254.607 170.225 254.607 L 185.393 254.607 185.393 260.562 L 185.393 266.517 188.202 266.517 L 191.011 266.517 191.011 258.539 L 191.011 250.562 188.933 250.605 C 187.789 250.629,186.197 250.679,185.393 250.716 M230.337 260.449 L 230.337 266.517 240.449 266.517 L 250.562 266.517 250.562 260.449 L 250.562 254.382 240.449 254.382 L 230.337 254.382 230.337 260.449 M128.764 261.236 L 128.764 266.517 139.775 266.517 L 150.787 266.517 150.787 261.236 L 150.787 255.955 139.775 255.955 L 128.764 255.955 128.764 261.236 M153.483 261.798 L 153.483 266.517 160.449 266.517 L 167.416 266.517 167.416 261.798 L 167.416 257.079 160.449 257.079 L 153.483 257.079 153.483 261.798 M170.112 261.798 L 170.112 266.517 176.404 266.517 L 182.697 266.517 182.697 261.798 L 182.697 257.079 176.404 257.079 L 170.112 257.079 170.112 261.798 M380.363 274.888 C 362.071 323.187,320.785 364.898,271.831 384.535 C 172.144 424.523,58.612 375.119,19.344 274.663 L 18.883 273.483 199.889 273.483 L 380.895 273.483 380.363 274.888 M128.090 301.236 L 128.090 308.764 129.438 308.764 L 130.787 308.764 130.787 301.236 L 130.787 293.708 129.438 293.708 L 128.090 293.708 128.090 301.236 M153.258 301.236 L 153.258 308.764 154.719 308.764 L 156.180 308.764 156.180 306.904 C 156.180 303.409,156.763 303.312,158.471 306.521 L 159.663 308.762 161.180 308.763 C 162.014 308.764,162.697 308.720,162.697 308.667 C 162.697 308.614,161.939 307.237,161.014 305.608 C 160.088 303.978,159.401 302.530,159.486 302.390 C 159.571 302.250,160.210 301.326,160.905 300.337 C 161.600 299.348,162.243 298.413,162.334 298.258 C 162.459 298.045,162.131 297.979,160.968 297.982 L 159.438 297.986 157.815 300.510 L 156.193 303.034 156.186 298.371 L 156.180 293.708 154.719 293.708 L 153.258 293.708 153.258 301.236 M240.449 301.236 L 240.449 308.764 241.798 308.764 L 243.146 308.764 243.146 301.236 L 243.146 293.708 241.798 293.708 L 240.449 293.708 240.449 301.236 M246.067 301.236 L 246.067 308.764 247.528 308.764 L 248.989 308.764 248.989 301.236 L 248.989 293.708 247.528 293.708 L 246.067 293.708 246.067 301.236 M279.326 301.236 L 279.326 308.764 280.674 308.764 L 282.022 308.764 282.022 301.236 L 282.022 293.708 280.674 293.708 L 279.326 293.708 279.326 301.236 M120.619 294.171 C 114.757 295.126,113.559 305.780,119.013 308.449 C 120.717 309.283,122.656 309.307,124.607 308.520 L 125.955 307.976 126.021 306.203 L 126.087 304.430 125.251 305.165 C 121.925 308.085,118.764 306.335,118.764 301.573 C 118.764 296.742,121.832 295.127,125.363 298.099 L 126.067 298.692 126.067 296.991 L 126.067 295.290 125.214 294.855 C 124.461 294.471,123.919 294.331,122.135 294.064 C 121.888 294.027,121.205 294.075,120.619 294.171 M53.708 299.853 C 53.708 306.092,53.678 306.195,51.891 306.148 L 51.011 306.125 51.011 307.328 C 51.011 308.691,51.238 308.844,53.276 308.848 C 56.308 308.855,56.724 307.860,56.814 300.393 L 56.887 294.382 55.297 294.382 L 53.708 294.382 53.708 299.853 M169.663 301.573 L 169.663 308.764 171.236 308.764 L 172.809 308.764 172.809 304.345 C 172.809 301.914,172.877 299.993,172.960 300.076 C 173.042 300.158,173.729 302.122,174.486 304.439 L 175.862 308.652 177.685 308.717 L 179.507 308.782 181.018 304.222 C 181.848 301.715,182.617 299.567,182.725 299.449 C 182.838 299.327,182.921 301.264,182.921 304.000 L 182.921 308.764 184.382 308.764 L 185.843 308.764 185.843 301.565 L 185.843 294.367 183.430 294.431 L 181.018 294.494 179.454 299.593 C 178.594 302.397,177.825 304.652,177.745 304.602 C 177.666 304.553,176.902 302.233,176.048 299.447 L 174.495 294.382 172.079 294.382 L 169.663 294.382 169.663 301.573 M255.730 295.618 L 255.730 296.854 257.753 296.854 L 259.775 296.854 259.775 302.809 L 259.775 308.764 261.236 308.764 L 262.697 308.764 262.697 302.809 L 262.697 296.854 264.719 296.854 L 266.742 296.854 266.742 295.618 L 266.742 294.382 261.236 294.382 L 255.730 294.382 255.730 295.618 M61.910 297.787 C 59.979 298.055,60.000 298.037,60.000 299.392 L 60.000 300.597 61.336 300.159 C 63.489 299.452,65.393 299.944,65.393 301.206 C 65.393 301.660,65.225 301.731,63.566 301.973 C 61.219 302.315,59.966 303.016,59.465 304.268 C 58.092 307.699,61.407 310.459,64.382 308.362 L 65.393 307.650 65.393 308.207 C 65.393 308.744,65.448 308.764,66.875 308.764 L 68.356 308.764 68.279 304.438 C 68.168 298.202,67.085 297.071,61.910 297.787 M92.387 297.753 C 88.270 298.725,87.134 305.661,90.686 308.144 C 91.905 308.995,93.849 309.333,95.577 308.993 C 97.855 308.544,97.978 308.440,97.978 306.941 L 97.978 305.639 96.854 306.223 C 94.390 307.501,91.883 306.787,91.375 304.663 L 91.227 304.045 94.747 304.045 L 98.267 304.045 98.142 302.386 C 97.866 298.740,95.675 296.977,92.387 297.753 M137.191 297.727 C 134.760 298.359,133.488 300.041,133.305 302.864 C 132.991 307.700,136.673 310.305,141.517 308.675 L 142.697 308.278 142.697 306.959 L 142.697 305.639 141.565 306.227 C 139.392 307.354,136.960 306.915,136.273 305.271 C 135.753 304.024,135.699 304.045,139.438 304.045 L 142.921 304.045 142.921 303.289 C 142.921 299.280,140.448 296.879,137.191 297.727 M191.968 297.765 C 189.629 298.089,189.663 298.064,189.663 299.419 L 189.663 300.627 191.067 300.186 C 193.206 299.513,195.281 300.013,195.281 301.201 C 195.281 301.677,195.140 301.737,193.496 301.954 C 190.221 302.386,188.877 303.577,189.040 305.902 C 189.252 308.930,192.141 310.127,194.478 308.154 L 195.169 307.571 195.240 308.167 C 195.308 308.739,195.368 308.764,196.657 308.764 L 198.004 308.764 197.934 304.285 C 197.839 298.138,196.877 297.085,191.968 297.765 M231.798 297.728 C 229.190 298.404,227.769 300.394,227.769 303.371 C 227.769 307.497,230.659 309.751,234.983 308.999 C 237.375 308.582,237.528 308.458,237.528 306.941 L 237.528 305.639 236.396 306.227 C 233.888 307.528,231.210 306.793,230.701 304.663 L 230.553 304.045 234.153 304.045 L 237.753 304.045 237.752 302.865 C 237.748 299.144,235.111 296.869,231.798 297.728 M270.715 297.841 C 266.337 299.053,265.674 306.330,269.752 308.416 C 271.358 309.237,273.609 309.345,275.342 308.683 L 276.404 308.277 276.404 306.955 L 276.404 305.633 275.601 306.107 C 273.228 307.507,269.888 306.628,269.888 304.603 L 269.888 304.045 273.258 304.045 L 276.629 304.045 276.629 302.725 C 276.629 298.942,274.146 296.891,270.715 297.841 M288.342 297.753 C 284.225 298.725,283.089 305.661,286.641 308.144 C 287.860 308.995,289.804 309.333,291.533 308.993 C 293.810 308.544,293.933 308.440,293.933 306.941 L 293.933 305.639 292.809 306.223 C 290.345 307.501,287.838 306.787,287.330 304.663 L 287.182 304.045 290.702 304.045 L 294.222 304.045 294.097 302.386 C 293.821 298.740,291.630 296.977,288.342 297.753 M318.810 297.840 C 314.647 298.992,313.914 306.355,317.747 308.509 C 321.044 310.362,324.765 308.469,325.391 304.620 C 326.138 300.034,322.907 296.706,318.810 297.840 M343.483 297.730 C 341.060 298.350,339.780 300.041,339.597 302.864 C 339.284 307.700,342.965 310.305,347.809 308.675 L 348.989 308.278 348.989 306.959 L 348.989 305.639 347.857 306.227 C 345.684 307.354,343.253 306.915,342.565 305.271 C 342.045 304.024,341.991 304.045,345.730 304.045 L 349.213 304.045 349.212 303.427 C 349.203 299.294,346.782 296.886,343.483 297.730 M75.152 298.421 C 74.071 299.239,73.933 299.252,73.933 298.539 C 73.933 298.002,73.873 297.978,72.584 297.978 L 71.236 297.978 71.236 303.371 L 71.236 308.764 72.584 308.764 L 73.933 308.764 73.933 304.820 L 73.933 300.876 74.742 300.538 C 76.898 299.637,77.303 300.372,77.303 305.183 L 77.303 308.764 78.652 308.764 L 80.000 308.764 80.000 304.857 L 80.000 300.950 80.764 300.587 C 82.987 299.532,83.371 300.173,83.371 304.944 L 83.371 308.764 84.852 308.764 L 86.333 308.764 86.252 304.438 C 86.179 300.535,86.124 300.023,85.688 299.202 C 84.767 297.466,82.971 297.243,81.120 298.634 L 79.948 299.515 79.110 298.634 C 77.990 297.456,76.531 297.378,75.152 298.421 M102.024 298.243 C 98.560 300.031,99.397 303.684,103.506 304.711 C 104.459 304.949,105.323 305.276,105.425 305.437 C 106.495 307.124,102.841 307.566,100.618 306.018 L 100.000 305.587 100.000 306.957 C 100.000 308.505,100.066 308.562,102.416 309.037 C 108.574 310.281,110.886 303.531,104.786 302.116 C 103.091 301.723,102.697 301.489,102.697 300.877 C 102.697 299.710,105.094 299.447,106.942 300.411 L 107.865 300.892 107.865 299.667 C 107.865 297.785,104.501 296.964,102.024 298.243 M297.979 298.243 C 294.515 300.031,295.352 303.684,299.461 304.711 C 300.414 304.949,301.278 305.276,301.380 305.437 C 302.450 307.124,298.796 307.566,296.573 306.018 L 295.955 305.587 295.955 306.957 C 295.955 308.505,296.021 308.562,298.371 309.037 C 304.529 310.281,306.841 303.531,300.741 302.116 C 299.046 301.723,298.652 301.489,298.652 300.877 C 298.652 299.710,301.049 299.447,302.897 300.411 L 303.820 300.892 303.820 299.667 C 303.820 297.785,300.456 296.964,297.979 298.243 M308.771 297.992 C 304.539 299.766,304.498 307.076,308.710 308.686 C 310.017 309.186,311.963 309.193,313.090 308.704 L 313.933 308.338 313.933 306.842 L 313.933 305.347 313.138 306.044 C 310.942 307.973,308.447 306.534,308.465 303.348 C 308.484 300.064,311.073 298.822,313.427 300.966 L 313.933 301.427 313.933 299.921 C 313.933 298.491,313.902 298.403,313.315 298.159 C 312.483 297.813,309.462 297.702,308.771 297.992 M331.946 298.427 C 330.819 299.243,330.787 299.246,330.787 298.539 C 330.787 297.998,330.734 297.978,329.326 297.978 L 327.865 297.978 327.865 305.393 L 327.865 312.809 329.326 312.809 L 330.787 312.809 330.787 310.562 C 330.787 309.326,330.825 308.315,330.871 308.315 C 330.918 308.315,331.319 308.466,331.763 308.652 C 334.822 309.930,337.487 307.704,337.706 303.687 C 337.969 298.872,335.033 296.191,331.946 298.427 M145.169 303.371 L 145.169 308.764 146.517 308.764 L 147.865 308.764 147.865 305.065 L 147.865 301.366 148.818 301.109 C 149.342 300.968,150.201 300.901,150.728 300.960 L 151.685 301.068 151.685 299.493 L 151.685 297.918 150.762 298.042 C 150.207 298.117,149.496 298.442,148.978 298.858 C 147.900 299.725,147.865 299.722,147.865 298.764 L 147.865 297.978 146.517 297.978 L 145.169 297.978 145.169 303.371 M201.121 300.697 L 202.899 303.417 201.108 306.091 L 199.317 308.764 200.843 308.764 L 202.369 308.764 203.339 307.191 C 203.873 306.326,204.390 305.618,204.489 305.618 C 204.587 305.618,205.088 306.326,205.602 307.191 L 206.537 308.764 208.094 308.764 L 209.651 308.764 207.971 306.178 C 205.939 303.047,205.938 303.561,207.980 300.504 L 209.669 297.978 208.118 297.978 L 206.568 297.978 205.634 299.551 C 205.120 300.416,204.614 301.124,204.510 301.124 C 204.406 301.124,203.900 300.416,203.386 299.551 L 202.452 297.978 200.897 297.978 L 199.342 297.978 201.121 300.697 M210.787 298.092 C 210.787 298.156,211.393 300.548,212.135 303.408 C 212.876 306.268,213.483 308.643,213.483 308.686 C 213.483 308.729,214.169 308.764,215.007 308.764 L 216.532 308.764 217.395 305.225 C 217.870 303.278,218.340 301.597,218.439 301.488 C 218.631 301.278,218.690 301.472,219.792 305.899 L 220.505 308.764 222.006 308.764 L 223.506 308.764 224.822 303.652 C 225.546 300.840,226.186 298.408,226.244 298.247 C 226.325 298.022,226.018 297.970,224.918 298.022 L 223.487 298.090 222.717 301.854 C 222.294 303.924,221.888 305.560,221.816 305.489 C 221.744 305.419,221.276 303.725,220.775 301.725 L 219.864 298.090 218.617 298.023 L 217.370 297.957 216.401 301.788 C 215.867 303.894,215.370 305.618,215.296 305.618 C 215.222 305.618,214.814 303.899,214.389 301.798 L 213.616 297.978 212.201 297.978 C 211.423 297.978,210.787 298.029,210.787 298.092 M94.690 300.056 C 94.997 300.334,95.314 300.890,95.394 301.292 L 95.541 302.022 93.373 302.022 C 91.014 302.022,91.167 302.133,91.571 300.729 C 91.891 299.615,93.758 299.212,94.690 300.056 M139.448 300.102 C 139.793 300.446,140.000 300.911,140.000 301.338 L 140.000 302.022 137.978 302.022 C 135.743 302.022,135.639 301.937,136.304 300.651 C 136.917 299.466,138.530 299.184,139.448 300.102 M234.436 300.235 C 234.653 300.504,234.831 301.016,234.831 301.373 L 234.831 302.022 232.697 302.022 C 231.522 302.022,230.562 301.936,230.562 301.831 C 230.562 299.925,233.278 298.806,234.436 300.235 M272.762 299.695 C 273.319 299.844,273.933 300.822,273.933 301.562 C 273.933 301.992,273.799 302.022,271.910 302.022 L 269.888 302.022 269.888 301.443 C 269.888 300.217,271.363 299.320,272.762 299.695 M290.645 300.056 C 290.952 300.334,291.269 300.890,291.349 301.292 L 291.496 302.022 289.329 302.022 C 286.969 302.022,287.122 302.133,287.526 300.729 C 287.846 299.615,289.713 299.212,290.645 300.056 M345.741 300.102 C 346.085 300.446,346.292 300.911,346.292 301.338 L 346.292 302.022 344.242 302.022 L 342.191 302.022 342.333 301.314 C 342.668 299.636,344.591 298.952,345.741 300.102 M321.232 299.999 C 323.010 300.674,322.918 306.284,321.120 306.855 C 319.411 307.397,318.408 306.369,318.250 303.917 C 318.050 300.790,319.231 299.238,321.232 299.999 M333.924 300.445 C 334.482 300.743,334.831 301.843,334.831 303.299 C 334.831 305.696,333.891 306.820,331.986 306.698 L 330.899 306.629 330.836 303.710 C 330.780 301.161,330.821 300.755,331.159 300.508 C 331.619 300.172,333.341 300.133,333.924 300.445 M65.393 304.916 C 65.393 306.442,65.171 306.724,63.824 306.904 C 61.774 307.179,61.200 304.370,63.218 303.942 C 65.520 303.453,65.393 303.396,65.393 304.916 M195.281 304.938 C 195.281 306.435,194.754 306.966,193.270 306.966 C 191.057 306.966,191.241 304.273,193.483 303.840 C 195.342 303.481,195.281 303.444,195.281 304.938 M160.000 322.135 L 160.000 323.371 161.461 323.371 L 162.921 323.371 162.921 322.135 L 162.921 320.899 161.461 320.899 L 160.000 320.899 160.000 322.135 M209.663 328.539 L 209.663 336.180 210.993 336.180 C 211.771 336.180,212.357 336.076,212.406 335.929 C 212.463 335.756,212.837 335.802,213.609 336.076 C 216.722 337.182,218.989 334.811,218.989 330.449 C 218.989 325.795,216.400 323.643,213.396 325.800 L 212.360 326.545 212.360 323.722 L 212.360 320.899 211.011 320.899 L 209.663 320.899 209.663 328.539 M197.799 321.759 C 193.840 323.176,192.064 328.644,194.187 332.885 C 196.648 337.802,203.920 337.622,206.270 332.586 C 209.152 326.412,203.824 319.603,197.799 321.759 M91.461 328.876 L 91.461 336.180 95.843 336.180 L 100.225 336.180 100.225 334.831 L 100.225 333.483 97.416 333.483 L 94.607 333.483 94.607 331.573 L 94.607 329.663 97.191 329.663 L 99.775 329.663 99.775 328.315 L 99.775 326.966 97.191 326.966 L 94.607 326.966 94.607 325.618 L 94.607 324.270 97.416 324.270 L 100.225 324.270 100.225 322.921 L 100.225 321.573 95.843 321.573 L 91.461 321.573 91.461 328.876 M138.909 325.337 C 138.270 327.407,137.253 330.698,136.648 332.650 L 135.548 336.199 137.032 336.133 L 138.516 336.067 138.929 334.663 L 139.342 333.258 141.752 333.258 L 144.163 333.258 144.581 334.719 L 145.000 336.180 146.432 336.180 C 147.220 336.180,147.868 336.104,147.872 336.011 C 147.876 335.919,146.890 332.633,145.681 328.709 L 143.483 321.575 141.777 321.574 L 140.071 321.573 138.909 325.337 M124.270 323.708 C 124.270 325.356,124.257 325.393,123.708 325.393 C 123.192 325.393,123.146 325.476,123.146 326.404 C 123.146 327.333,123.192 327.416,123.708 327.416 L 124.270 327.416 124.271 330.393 C 124.273 335.601,125.245 336.848,128.876 336.304 L 129.888 336.152 129.888 335.070 L 129.888 333.988 128.878 334.102 C 127.260 334.284,127.191 334.138,127.191 330.534 L 127.191 327.416 128.539 327.416 L 129.888 327.416 129.888 326.404 L 129.888 325.393 128.539 325.393 L 127.191 325.393 127.191 323.708 L 127.191 322.022 125.730 322.022 L 124.270 322.022 124.270 323.708 M273.258 323.708 C 273.258 325.356,273.246 325.393,272.697 325.393 C 272.181 325.393,272.135 325.476,272.135 326.404 C 272.135 327.333,272.181 327.416,272.697 327.416 L 273.258 327.416 273.271 330.618 C 273.291 335.750,274.182 336.856,277.851 336.306 L 278.876 336.152 278.876 335.075 L 278.876 333.999 277.800 334.102 C 276.199 334.256,276.083 334.021,275.989 330.415 L 275.911 327.416 277.394 327.416 L 278.876 327.416 278.876 326.404 L 278.876 325.393 277.416 325.393 L 275.955 325.393 275.955 323.708 L 275.955 322.022 274.607 322.022 L 273.258 322.022 273.258 323.708 M201.956 324.433 C 204.193 325.898,204.090 331.872,201.801 333.427 C 198.769 335.488,195.807 331.610,196.932 327.051 C 197.627 324.235,199.870 323.066,201.956 324.433 M104.326 325.212 L 103.146 325.428 103.146 326.646 C 103.146 327.997,103.176 328.017,104.404 327.505 C 105.665 326.977,107.792 327.164,108.348 327.851 C 109.170 328.865,108.933 329.133,107.078 329.290 C 103.490 329.593,101.775 331.343,102.483 333.975 C 103.119 336.336,105.320 337.108,107.492 335.730 C 108.776 334.916,108.764 334.917,108.764 335.618 C 108.764 336.155,108.824 336.180,110.112 336.180 L 111.461 336.180 111.461 332.168 C 111.461 325.445,110.136 324.153,104.326 325.212 M116.404 325.194 C 112.209 326.461,112.550 331.028,116.914 332.021 C 118.766 332.442,119.101 332.654,119.101 333.404 C 119.101 334.550,116.585 334.664,114.554 333.611 L 113.483 333.055 113.483 334.384 L 113.483 335.713 114.648 336.059 C 118.055 337.071,121.133 336.001,121.775 333.583 C 122.351 331.410,121.196 330.027,118.315 329.439 C 116.756 329.122,116.404 328.897,116.404 328.220 C 116.404 327.029,118.550 326.778,120.473 327.744 L 121.573 328.296 121.573 327.058 C 121.573 325.850,121.553 325.811,120.770 325.484 C 119.724 325.047,117.402 324.893,116.404 325.194 M152.440 325.145 C 147.911 326.309,148.438 331.128,153.206 332.146 C 154.853 332.497,155.339 333.010,154.767 333.792 C 154.122 334.675,151.621 334.456,150.031 333.377 L 149.213 332.823 149.213 334.246 L 149.213 335.669 150.471 336.064 C 154.244 337.251,157.753 335.634,157.753 332.708 C 157.753 330.984,156.898 330.135,154.579 329.558 C 152.453 329.029,152.135 328.854,152.135 328.215 C 152.135 327.070,154.425 326.796,156.254 327.722 L 157.303 328.253 157.303 326.946 L 157.303 325.639 156.461 325.391 C 155.299 325.050,153.289 324.927,152.440 325.145 M166.798 325.199 L 165.618 325.428 165.618 326.646 C 165.618 327.997,165.648 328.017,166.875 327.505 C 168.675 326.753,170.920 327.306,171.060 328.536 C 171.121 329.071,171.058 329.100,169.438 329.275 C 166.133 329.632,164.463 331.216,164.827 333.645 C 165.207 336.178,167.677 337.180,169.964 335.730 C 171.248 334.916,171.236 334.917,171.236 335.618 C 171.236 336.156,171.295 336.180,172.601 336.180 L 173.967 336.180 173.894 331.854 C 173.785 325.438,172.379 324.120,166.798 325.199 M181.687 325.099 C 181.440 325.167,180.808 325.519,180.282 325.881 L 179.326 326.538 179.326 325.966 C 179.326 325.411,179.281 325.393,177.865 325.393 L 176.404 325.393 176.404 330.787 L 176.404 336.180 177.865 336.180 L 179.326 336.180 179.326 332.171 L 179.326 328.162 179.898 327.901 C 182.306 326.804,182.921 327.814,182.921 332.864 L 182.921 336.180 184.283 336.180 L 185.644 336.180 185.575 331.742 C 185.483 325.876,184.565 324.308,181.687 325.099 M223.745 325.205 C 219.655 326.354,220.099 331.037,224.392 332.033 C 226.233 332.460,226.562 332.686,226.472 333.464 C 226.339 334.609,223.173 334.613,221.720 333.470 C 220.931 332.850,220.899 332.885,220.899 334.373 L 220.899 335.713 222.063 336.059 C 223.661 336.533,225.952 336.498,227.088 335.982 C 230.484 334.440,229.912 330.150,226.231 329.544 C 224.578 329.272,223.820 328.857,223.820 328.222 C 223.820 327.054,226.140 326.787,227.944 327.746 L 228.989 328.302 228.989 327.061 C 228.989 325.850,228.969 325.812,228.185 325.484 C 227.133 325.045,224.831 324.900,223.745 325.205 M234.156 325.154 C 229.209 326.659,229.033 334.685,233.915 336.148 C 235.154 336.519,237.416 336.463,238.800 336.026 L 240.000 335.648 240.000 334.341 C 240.000 333.622,239.975 333.034,239.944 333.035 C 239.913 333.035,239.390 333.288,238.782 333.596 C 236.227 334.893,233.258 333.872,233.258 331.697 C 233.258 331.252,233.380 331.236,236.742 331.236 L 240.225 331.236 240.223 330.169 C 240.219 326.415,237.472 324.145,234.156 325.154 M262.978 325.215 L 261.798 325.456 261.798 326.661 C 261.798 327.323,261.855 327.865,261.924 327.865 C 261.994 327.865,262.553 327.701,263.166 327.500 C 265.263 326.814,267.416 327.415,267.416 328.687 C 267.416 329.157,267.313 329.213,266.452 329.213 C 263.099 329.213,261.123 330.644,261.124 333.068 C 261.126 336.005,264.040 337.437,266.380 335.652 C 267.342 334.918,267.416 334.916,267.416 335.618 C 267.416 336.155,267.475 336.180,268.777 336.180 L 270.139 336.180 270.069 331.701 C 269.971 325.373,268.554 324.076,262.978 325.215 M283.524 325.256 C 279.179 326.875,278.992 334.299,283.252 336.079 C 286.883 337.596,290.268 335.326,290.514 331.209 C 290.782 326.719,287.378 323.819,283.524 325.256 M142.672 328.060 C 143.517 331.050,143.605 330.824,141.634 330.741 L 140.067 330.674 140.854 327.910 C 141.287 326.390,141.711 325.228,141.795 325.326 C 141.880 325.425,142.274 326.655,142.672 328.060 M247.245 325.504 C 246.843 325.679,246.160 326.092,245.729 326.421 L 244.944 327.020 244.944 326.206 L 244.944 325.393 243.596 325.393 L 242.247 325.393 242.247 330.787 L 242.247 336.180 243.596 336.180 L 244.944 336.180 244.944 332.466 L 244.944 328.753 245.562 328.517 C 245.902 328.388,246.761 328.314,247.472 328.354 L 248.765 328.427 248.764 326.798 C 248.764 324.982,248.657 324.891,247.245 325.504 M297.640 325.445 C 297.270 325.578,296.612 325.978,296.180 326.333 L 295.393 326.979 295.324 326.186 L 295.254 325.393 293.919 325.393 L 292.584 325.393 292.584 330.787 L 292.584 336.180 293.933 336.180 L 295.281 336.180 295.281 332.466 L 295.281 328.753 295.899 328.517 C 296.239 328.388,297.098 328.314,297.809 328.354 L 299.102 328.427 299.102 326.798 C 299.101 325.006,299.036 324.946,297.640 325.445 M160.000 330.787 L 160.000 336.180 161.348 336.180 L 162.697 336.180 162.697 330.787 L 162.697 325.393 161.348 325.393 L 160.000 325.393 160.000 330.787 M249.787 325.899 C 249.873 326.177,250.493 328.124,251.165 330.225 C 251.838 332.326,252.543 334.530,252.732 335.122 L 253.076 336.199 254.662 336.133 L 256.248 336.067 256.560 335.169 C 256.731 334.674,257.513 332.272,258.299 329.831 L 259.727 325.393 258.329 325.393 L 256.932 325.393 256.201 328.034 C 254.828 332.991,254.785 333.120,254.614 332.790 C 254.523 332.615,254.004 330.879,253.461 328.933 L 252.472 325.394 251.052 325.394 C 249.684 325.393,249.638 325.412,249.787 325.899 M300.000 325.489 C 300.000 325.542,300.820 327.977,301.821 330.899 L 303.643 336.213 302.945 338.061 C 302.561 339.078,302.247 339.986,302.247 340.078 C 302.247 340.170,302.921 340.215,303.746 340.179 L 305.244 340.112 307.789 332.921 C 309.188 328.966,310.334 325.650,310.335 325.551 C 310.336 325.452,309.708 325.402,308.938 325.439 L 307.539 325.506 306.474 328.962 C 305.888 330.864,305.363 332.464,305.308 332.519 C 305.253 332.575,304.690 330.994,304.057 329.007 L 302.907 325.393 301.454 325.393 C 300.654 325.393,300.000 325.437,300.000 325.489 M236.783 327.455 C 237.125 327.776,237.303 328.200,237.303 328.691 L 237.303 329.438 235.281 329.438 C 233.387 329.438,233.258 329.409,233.258 328.974 C 233.258 327.242,235.519 326.268,236.783 327.455 M286.379 327.445 C 287.587 327.995,288.049 332.079,287.054 333.411 C 285.723 335.193,283.414 334.004,283.210 331.432 C 282.953 328.202,284.306 326.500,286.379 327.445 M215.151 327.674 C 215.924 328.026,216.244 329.139,216.144 331.128 C 216.025 333.477,214.965 334.469,213.027 334.044 L 212.347 333.894 212.409 330.942 C 212.483 327.450,213.085 326.732,215.151 327.674 M108.764 332.242 C 108.764 333.977,106.809 335.015,105.534 333.956 C 104.133 332.793,105.571 331.112,108.034 331.034 L 108.764 331.011 108.764 332.242 M171.236 332.242 C 171.236 333.977,169.281 335.015,168.006 333.956 C 166.604 332.793,168.043 331.112,170.506 331.034 L 171.236 331.011 171.236 332.242 M267.416 332.242 C 267.416 334.040,265.107 335.157,264.135 333.828 C 263.082 332.388,264.247 331.111,266.685 331.034 L 267.416 331.011 267.416 332.242 M85.191 360.187 C 85.982 360.784,87.879 362.150,89.407 363.221 L 92.185 365.169 199.905 365.169 L 307.625 365.169 309.936 363.553 C 312.443 361.801,315.490 359.599,315.831 359.293 C 315.949 359.187,263.870 359.101,199.899 359.101 L 83.753 359.101 85.191 360.187 " stroke="none" fill="#fcfcfc" fill-rule="evenodd"></path><path id="path1" d="M189.775 6.204 C 183.470 6.658,181.590 6.819,178.090 7.208 C 98.135 16.100,31.345 75.006,11.603 154.045 C 10.009 160.427,7.649 172.667,7.954 172.972 C 8.133 173.151,17.902 164.784,30.342 153.796 C 62.638 125.272,97.981 99.842,111.944 95.082 C 127.957 89.624,139.664 92.706,157.528 107.085 C 180.433 125.521,185.646 127.105,195.323 118.568 C 196.396 117.620,199.895 113.991,203.098 110.501 C 214.908 97.637,217.881 95.556,226.292 94.263 C 243.280 91.653,262.827 99.758,328.090 136.470 C 340.441 143.419,390.175 171.950,391.629 172.922 C 391.660 172.942,391.801 173.810,391.943 174.850 C 392.084 175.891,392.293 176.843,392.408 176.966 C 392.538 177.107,392.571 176.981,392.495 176.629 C 392.428 176.320,392.264 175.258,392.130 174.270 C 384.670 119.331,352.947 68.935,306.404 38.086 C 279.108 19.994,249.623 9.732,215.955 6.607 C 212.279 6.266,193.035 5.969,189.775 6.204 M165.281 51.780 C 181.025 53.354,192.279 56.051,216.629 64.086 C 243.701 73.020,266.931 81.957,291.461 92.875 C 315.460 103.557,381.572 133.792,381.825 134.201 C 382.055 134.574,385.209 144.079,385.129 144.158 C 385.089 144.197,381.871 142.764,377.978 140.973 C 324.881 116.544,289.689 100.589,275.730 94.615 C 246.712 82.197,202.052 66.737,182.921 62.486 C 161.272 57.676,133.368 58.079,107.753 63.572 C 95.250 66.253,70.725 72.633,50.712 78.412 L 49.177 78.855 50.252 77.574 C 52.217 75.230,56.360 70.467,57.570 69.159 L 58.764 67.868 64.045 66.421 C 102.942 55.759,117.730 52.803,139.326 51.375 C 142.825 51.144,161.892 51.441,165.281 51.780 M253.933 131.748 L 253.933 138.375 255.787 138.636 C 256.806 138.780,257.969 138.954,258.371 139.024 L 259.101 139.151 259.101 141.935 L 259.101 144.719 257.303 144.719 L 255.506 144.719 255.506 151.035 C 255.506 156.536,255.462 157.335,255.171 157.223 C 253.440 156.559,221.878 156.522,214.944 157.176 C 199.597 158.623,192.967 160.407,192.209 163.293 C 192.027 163.984,191.761 163.647,181.966 150.330 L 171.910 136.658 171.910 133.471 C 171.910 130.544,171.878 130.294,171.517 130.396 C 171.301 130.457,168.061 131.731,164.317 133.227 L 157.510 135.948 153.193 139.506 L 148.876 143.064 148.816 148.739 L 148.756 154.413 149.996 156.520 L 151.236 158.627 151.236 201.182 L 151.236 243.738 150.031 244.118 C 146.459 245.244,146.711 247.433,150.618 249.213 L 152.344 250.000 152.352 251.629 L 152.360 253.258 139.326 253.258 L 126.292 253.258 126.292 261.011 L 126.292 268.764 210.787 268.764 L 295.281 268.764 295.281 259.126 L 295.281 249.488 296.116 249.332 C 301.538 248.314,300.246 245.043,293.764 243.375 L 292.809 243.129 292.809 199.678 C 292.809 160.264,292.842 156.215,293.164 156.091 C 293.360 156.016,293.964 155.955,294.507 155.955 C 296.178 155.955,296.726 153.464,296.301 147.801 L 296.138 145.626 292.507 140.816 L 288.876 136.005 281.236 132.718 L 273.596 129.432 264.270 127.401 C 259.140 126.285,254.716 125.314,254.438 125.245 L 253.933 125.120 253.933 131.748 M264.788 130.258 L 272.697 131.976 279.864 135.065 L 287.032 138.154 290.370 142.545 L 293.708 146.937 293.708 148.792 C 293.708 150.315,293.657 150.584,293.427 150.296 C 293.272 150.102,292.984 149.855,292.786 149.747 C 292.588 149.639,291.351 148.323,290.037 146.823 C 288.723 145.323,287.520 144.047,287.364 143.987 C 287.207 143.927,283.438 142.583,278.989 140.999 L 270.899 138.120 263.820 137.094 L 256.742 136.067 256.680 132.303 C 256.646 130.233,256.677 128.539,256.749 128.539 C 256.821 128.539,260.439 129.313,264.788 130.258 M169.174 137.631 L 169.203 141.105 168.365 141.243 C 167.905 141.319,167.326 141.475,167.079 141.591 C 166.831 141.707,164.876 142.289,162.733 142.884 L 158.837 143.966 155.842 146.700 C 154.195 148.204,152.535 149.697,152.154 150.018 L 151.461 150.602 151.476 147.492 L 151.491 144.382 155.214 141.348 L 158.938 138.315 164.019 136.258 C 166.814 135.127,169.111 134.192,169.123 134.180 C 169.136 134.167,169.159 135.721,169.174 137.631 M266.106 140.117 C 269.965 140.677,270.117 140.721,278.023 143.544 L 286.032 146.404 288.072 148.715 L 290.112 151.026 290.112 196.828 L 290.112 242.630 288.933 242.442 C 284.461 241.730,277.185 241.228,267.809 240.985 L 261.798 240.830 261.798 190.190 C 261.798 160.829,261.882 139.551,261.997 139.551 C 262.107 139.551,263.956 139.806,266.106 140.117 M181.801 154.719 C 187.152 162.011,191.628 168.104,191.747 168.258 C 192.358 169.047,187.034 166.536,185.258 165.197 C 184.601 164.702,182.191 161.927,179.276 158.307 L 174.394 152.247 174.388 150.843 L 174.382 149.438 173.266 149.438 L 172.150 149.438 170.569 147.474 C 168.541 144.955,168.394 144.023,169.959 143.629 C 171.050 143.354,171.577 142.878,171.807 141.956 C 171.894 141.610,171.988 141.357,172.018 141.394 C 172.047 141.431,176.450 147.427,181.801 154.719 M166.517 193.258 C 166.517 228.971,166.450 241.798,166.265 241.798 C 165.399 241.798,157.943 242.550,156.125 242.820 C 154.921 242.999,153.884 243.146,153.822 243.146 C 153.759 243.146,153.708 222.723,153.708 197.762 L 153.708 152.379 156.953 149.392 L 160.198 146.404 163.077 145.579 C 164.660 145.126,166.081 144.746,166.236 144.737 C 166.460 144.723,166.517 154.567,166.517 193.258 M169.888 196.215 C 169.888 241.423,169.886 241.573,169.438 241.573 C 168.990 241.573,168.989 241.423,168.989 195.808 C 168.989 150.057,168.989 150.043,169.438 150.449 C 169.885 150.854,169.888 151.142,169.888 196.215 M181.222 165.146 C 181.299 165.271,180.847 166.400,180.217 167.655 C 178.084 171.907,176.322 176.669,175.059 181.596 L 174.402 184.157 174.392 170.372 L 174.382 156.587 177.732 160.753 C 179.574 163.044,181.145 165.021,181.222 165.146 M253.427 159.691 L 255.506 159.830 255.505 161.432 L 255.504 163.034 254.295 163.686 L 253.086 164.338 234.914 164.369 C 215.303 164.402,215.920 164.373,206.180 165.742 C 201.544 166.394,198.270 167.037,196.506 167.644 L 195.281 168.066 195.281 165.746 L 195.281 163.426 196.573 162.956 C 200.488 161.535,210.595 160.048,220.337 159.462 C 222.433 159.336,251.092 159.534,253.427 159.691 M243.483 166.939 L 247.753 167.079 244.831 168.289 C 234.525 172.560,217.475 173.529,201.236 170.767 C 197.757 170.176,197.632 170.119,198.989 169.748 C 203.406 168.542,215.779 167.086,223.258 166.894 C 227.763 166.777,239.321 166.804,243.483 166.939 M255.084 167.416 C 255.495 167.416,255.506 168.380,255.506 204.058 L 255.506 240.700 246.798 240.526 C 231.979 240.229,195.107 240.300,187.338 240.641 C 183.365 240.816,180.322 240.861,180.209 240.748 C 179.057 239.596,176.469 226.828,175.684 218.427 C 175.300 214.318,175.301 197.405,175.685 193.933 C 176.623 185.457,178.197 179.070,180.947 172.584 C 181.874 170.398,183.318 167.416,183.450 167.416 C 183.491 167.416,184.328 167.899,185.311 168.490 C 195.989 174.907,224.054 177.034,240.449 172.668 C 243.209 171.933,247.524 170.216,250.787 168.554 C 252.636 167.612,253.555 167.263,254.017 167.326 C 254.372 167.376,254.853 167.416,255.084 167.416 M176.313 237.416 C 176.758 239.022,177.175 240.514,177.239 240.730 C 177.338 241.062,177.203 241.124,176.375 241.127 C 175.835 241.128,175.166 241.191,174.888 241.265 L 174.382 241.401 174.398 235.588 L 174.413 229.775 174.958 232.135 C 175.258 233.433,175.867 235.809,176.313 237.416 M257.753 243.362 C 279.475 243.879,286.258 244.385,293.124 245.997 C 295.014 246.441,295.485 246.623,295.184 246.791 C 294.733 247.044,294.138 246.986,290.449 246.333 C 282.382 244.905,273.186 244.500,237.865 244.020 C 218.289 243.754,195.954 243.860,186.966 244.261 C 170.133 245.012,159.997 245.763,154.643 246.655 C 151.263 247.219,150.250 246.637,153.483 245.989 C 159.332 244.818,172.108 243.860,191.461 243.145 C 197.893 242.907,245.146 243.062,257.753 243.362 M253.034 246.520 C 280.328 247.047,292.584 247.998,292.584 249.589 C 292.584 250.011,292.491 250.115,292.191 250.026 C 290.297 249.467,282.543 248.635,276.292 248.322 C 263.783 247.694,218.859 247.053,203.539 247.284 L 193.708 247.432 193.708 246.868 L 193.708 246.304 197.022 246.217 C 202.421 246.076,240.762 246.283,253.034 246.520 M191.011 247.382 L 191.011 248.246 186.685 248.400 C 175.298 248.803,163.690 249.595,156.333 250.472 L 155.025 250.627 155.097 249.755 L 155.169 248.882 157.079 248.611 C 162.438 247.850,180.713 246.642,188.258 246.550 L 191.011 246.517 191.011 247.382 M222.416 249.587 L 227.640 249.735 227.640 258.126 L 227.640 266.517 210.674 266.517 L 193.708 266.517 193.708 258.094 L 193.708 249.672 198.483 249.606 C 209.565 249.455,217.513 249.448,222.416 249.587 M250.337 249.887 C 275.268 250.341,283.187 250.770,290.506 252.065 L 292.584 252.433 292.584 259.475 L 292.584 266.517 272.809 266.517 L 253.034 266.517 253.034 259.101 L 253.034 251.685 241.685 251.685 L 230.337 251.685 230.337 250.674 L 230.337 249.663 234.213 249.664 C 236.346 249.664,243.601 249.765,250.337 249.887 M191.011 258.539 L 191.011 266.517 188.202 266.517 L 185.393 266.517 185.393 260.562 L 185.393 254.607 170.225 254.607 L 155.056 254.607 155.056 253.835 C 155.056 253.295,155.174 253.029,155.449 252.946 C 156.855 252.524,167.623 251.628,177.303 251.127 C 185.922 250.681,186.474 250.656,188.933 250.605 L 191.011 250.562 191.011 258.539 M250.562 260.449 L 250.562 266.517 240.449 266.517 L 230.337 266.517 230.337 260.449 L 230.337 254.382 240.449 254.382 L 250.562 254.382 250.562 260.449 M150.787 261.236 L 150.787 266.517 139.775 266.517 L 128.764 266.517 128.764 261.236 L 128.764 255.955 139.775 255.955 L 150.787 255.955 150.787 261.236 M167.416 261.798 L 167.416 266.517 160.449 266.517 L 153.483 266.517 153.483 261.798 L 153.483 257.079 160.449 257.079 L 167.416 257.079 167.416 261.798 M182.697 261.798 L 182.697 266.517 176.404 266.517 L 170.112 266.517 170.112 261.798 L 170.112 257.079 176.404 257.079 L 182.697 257.079 182.697 261.798 M19.344 274.663 C 58.612 375.119,172.144 424.523,271.831 384.535 C 320.785 364.898,362.071 323.187,380.363 274.888 L 380.895 273.483 199.889 273.483 L 18.883 273.483 19.344 274.663 M130.787 301.236 L 130.787 308.764 129.438 308.764 L 128.090 308.764 128.090 301.236 L 128.090 293.708 129.438 293.708 L 130.787 293.708 130.787 301.236 M156.186 298.371 L 156.193 303.034 157.815 300.510 L 159.438 297.986 160.968 297.982 C 162.131 297.979,162.459 298.045,162.334 298.258 C 162.243 298.413,161.600 299.348,160.905 300.337 C 160.210 301.326,159.571 302.250,159.486 302.390 C 159.401 302.530,160.088 303.978,161.014 305.608 C 161.939 307.237,162.697 308.614,162.697 308.667 C 162.697 308.720,162.014 308.764,161.180 308.763 L 159.663 308.762 158.471 306.521 C 156.763 303.312,156.180 303.409,156.180 306.904 L 156.180 308.764 154.719 308.764 L 153.258 308.764 153.258 301.236 L 153.258 293.708 154.719 293.708 L 156.180 293.708 156.186 298.371 M243.146 301.236 L 243.146 308.764 241.798 308.764 L 240.449 308.764 240.449 301.236 L 240.449 293.708 241.798 293.708 L 243.146 293.708 243.146 301.236 M248.989 301.236 L 248.989 308.764 247.528 308.764 L 246.067 308.764 246.067 301.236 L 246.067 293.708 247.528 293.708 L 248.989 293.708 248.989 301.236 M282.022 301.236 L 282.022 308.764 280.674 308.764 L 279.326 308.764 279.326 301.236 L 279.326 293.708 280.674 293.708 L 282.022 293.708 282.022 301.236 M123.473 294.275 C 123.961 294.355,124.745 294.615,125.214 294.855 L 126.067 295.290 126.067 296.991 L 126.067 298.692 125.363 298.099 C 121.832 295.127,118.764 296.742,118.764 301.573 C 118.764 306.335,121.925 308.085,125.251 305.165 L 126.087 304.430 126.021 306.203 L 125.955 307.976 124.607 308.520 C 122.656 309.307,120.717 309.283,119.013 308.449 C 112.830 305.424,115.511 293.071,122.135 294.064 C 122.382 294.101,122.984 294.196,123.473 294.275 M56.814 300.393 C 56.724 307.860,56.308 308.855,53.276 308.848 C 51.238 308.844,51.011 308.691,51.011 307.328 L 51.011 306.125 51.891 306.148 C 53.678 306.195,53.708 306.092,53.708 299.853 L 53.708 294.382 55.297 294.382 L 56.887 294.382 56.814 300.393 M176.048 299.447 C 176.902 302.233,177.666 304.553,177.745 304.602 C 177.825 304.652,178.594 302.397,179.454 299.593 L 181.018 294.494 183.430 294.431 L 185.843 294.367 185.843 301.565 L 185.843 308.764 184.382 308.764 L 182.921 308.764 182.921 304.000 C 182.921 301.264,182.838 299.327,182.725 299.449 C 182.617 299.567,181.848 301.715,181.018 304.222 L 179.507 308.782 177.685 308.717 L 175.862 308.652 174.486 304.439 C 173.729 302.122,173.042 300.158,172.960 300.076 C 172.877 299.993,172.809 301.914,172.809 304.345 L 172.809 308.764 171.236 308.764 L 169.663 308.764 169.663 301.573 L 169.663 294.382 172.079 294.382 L 174.495 294.382 176.048 299.447 M266.742 295.618 L 266.742 296.854 264.719 296.854 L 262.697 296.854 262.697 302.809 L 262.697 308.764 261.236 308.764 L 259.775 308.764 259.775 302.809 L 259.775 296.854 257.753 296.854 L 255.730 296.854 255.730 295.618 L 255.730 294.382 261.236 294.382 L 266.742 294.382 266.742 295.618 M66.409 298.222 C 68.034 298.978,68.191 299.501,68.279 304.438 L 68.356 308.764 66.875 308.764 C 65.448 308.764,65.393 308.744,65.393 308.207 L 65.393 307.650 64.382 308.362 C 61.407 310.459,58.092 307.699,59.465 304.268 C 59.966 303.016,61.219 302.315,63.566 301.973 C 65.225 301.731,65.393 301.660,65.393 301.206 C 65.393 299.944,63.489 299.452,61.336 300.159 L 60.000 300.597 60.000 299.392 C 60.000 298.037,59.979 298.055,61.910 297.787 C 63.671 297.543,65.287 297.699,66.409 298.222 M95.197 297.861 C 97.064 298.415,97.944 299.768,98.142 302.386 L 98.267 304.045 94.747 304.045 L 91.227 304.045 91.375 304.663 C 91.883 306.787,94.390 307.501,96.854 306.223 L 97.978 305.639 97.978 306.941 C 97.978 308.440,97.855 308.544,95.577 308.993 C 91.439 309.807,88.652 307.544,88.652 303.371 C 88.652 299.174,91.511 296.767,95.197 297.861 M140.600 298.123 C 141.986 298.781,142.921 300.863,142.921 303.289 L 142.921 304.045 139.438 304.045 C 135.699 304.045,135.753 304.024,136.273 305.271 C 136.960 306.915,139.392 307.354,141.565 306.227 L 142.697 305.639 142.697 306.959 L 142.697 308.278 141.517 308.675 C 136.673 310.305,132.991 307.700,133.305 302.864 C 133.574 298.712,137.063 296.445,140.600 298.123 M196.165 298.171 C 197.757 298.931,197.857 299.277,197.934 304.285 L 198.004 308.764 196.657 308.764 C 195.368 308.764,195.308 308.739,195.240 308.167 L 195.169 307.571 194.478 308.154 C 192.141 310.127,189.252 308.930,189.040 305.902 C 188.877 303.577,190.221 302.386,193.496 301.954 C 195.140 301.737,195.281 301.677,195.281 301.201 C 195.281 300.013,193.206 299.513,191.067 300.186 L 189.663 300.627 189.663 299.419 C 189.663 298.317,189.712 298.198,190.226 298.069 C 192.428 297.517,194.884 297.559,196.165 298.171 M235.506 298.177 C 236.928 298.903,237.749 300.617,237.752 302.865 L 237.753 304.045 234.153 304.045 L 230.553 304.045 230.701 304.663 C 231.210 306.793,233.888 307.528,236.396 306.227 L 237.528 305.639 237.528 306.941 C 237.528 308.458,237.375 308.582,234.983 308.999 C 230.659 309.751,227.769 307.497,227.769 303.371 C 227.769 298.933,231.749 296.261,235.506 298.177 M274.379 298.090 C 275.809 298.835,276.629 300.524,276.629 302.725 L 276.629 304.045 273.258 304.045 L 269.888 304.045 269.888 304.603 C 269.888 306.628,273.228 307.507,275.601 306.107 L 276.404 305.633 276.404 306.955 L 276.404 308.277 275.342 308.683 C 272.363 309.821,268.986 308.818,267.767 306.433 C 265.230 301.473,269.800 295.707,274.379 298.090 M291.152 297.861 C 293.019 298.415,293.899 299.768,294.097 302.386 L 294.222 304.045 290.702 304.045 L 287.182 304.045 287.330 304.663 C 287.838 306.787,290.345 307.501,292.809 306.223 L 293.933 305.639 293.933 306.941 C 293.933 308.440,293.810 308.544,291.533 308.993 C 287.394 309.807,284.607 307.544,284.607 303.371 C 284.607 299.174,287.466 296.767,291.152 297.861 M322.919 298.282 C 326.096 299.876,326.398 306.226,323.393 308.250 C 319.420 310.926,315.025 308.037,315.329 302.948 C 315.592 298.552,319.126 296.379,322.919 298.282 M346.930 298.144 C 348.281 298.780,349.207 300.922,349.212 303.427 L 349.213 304.045 345.730 304.045 C 341.991 304.045,342.045 304.024,342.565 305.271 C 343.253 306.915,345.684 307.354,347.857 306.227 L 348.989 305.639 348.989 306.959 L 348.989 308.278 347.809 308.675 C 342.965 310.305,339.284 307.700,339.597 302.864 C 339.867 298.698,343.345 296.459,346.930 298.144 M79.110 298.634 L 79.948 299.515 81.120 298.634 C 82.971 297.243,84.767 297.466,85.688 299.202 C 86.124 300.023,86.179 300.535,86.252 304.438 L 86.333 308.764 84.852 308.764 L 83.371 308.764 83.371 304.944 C 83.371 300.173,82.987 299.532,80.764 300.587 L 80.000 300.950 80.000 304.857 L 80.000 308.764 78.652 308.764 L 77.303 308.764 77.303 305.183 C 77.303 300.372,76.898 299.637,74.742 300.538 L 73.933 300.876 73.933 304.820 L 73.933 308.764 72.584 308.764 L 71.236 308.764 71.236 303.371 L 71.236 297.978 72.584 297.978 C 73.873 297.978,73.933 298.002,73.933 298.539 C 73.933 299.252,74.071 299.239,75.152 298.421 C 76.531 297.378,77.990 297.456,79.110 298.634 M107.360 298.168 C 107.788 298.401,107.865 298.629,107.865 299.667 L 107.865 300.892 106.942 300.411 C 105.094 299.447,102.697 299.710,102.697 300.877 C 102.697 301.489,103.091 301.723,104.786 302.116 C 110.886 303.531,108.574 310.281,102.416 309.037 C 100.066 308.562,100.000 308.505,100.000 306.957 L 100.000 305.587 100.618 306.018 C 102.841 307.566,106.495 307.124,105.425 305.437 C 105.323 305.276,104.459 304.949,103.506 304.711 C 100.245 303.896,99.016 301.772,100.507 299.528 C 101.582 297.911,105.469 297.139,107.360 298.168 M303.315 298.168 C 303.743 298.401,303.820 298.629,303.820 299.667 L 303.820 300.892 302.897 300.411 C 301.049 299.447,298.652 299.710,298.652 300.877 C 298.652 301.489,299.046 301.723,300.741 302.116 C 306.841 303.531,304.529 310.281,298.371 309.037 C 296.021 308.562,295.955 308.505,295.955 306.957 L 295.955 305.587 296.573 306.018 C 298.796 307.566,302.450 307.124,301.380 305.437 C 301.278 305.276,300.414 304.949,299.461 304.711 C 296.200 303.896,294.971 301.772,296.462 299.528 C 297.537 297.911,301.424 297.139,303.315 298.168 M313.315 298.159 C 313.902 298.403,313.933 298.491,313.933 299.921 L 313.933 301.427 313.427 300.966 C 311.073 298.822,308.484 300.064,308.465 303.348 C 308.447 306.534,310.942 307.973,313.138 306.044 L 313.933 305.347 313.933 306.842 L 313.933 308.338 313.090 308.704 C 309.125 310.426,305.365 307.468,305.665 302.864 C 305.931 298.797,309.528 296.584,313.315 298.159 M335.737 298.139 C 337.234 299.181,337.856 300.933,337.706 303.687 C 337.487 307.704,334.822 309.930,331.763 308.652 C 331.319 308.466,330.918 308.315,330.871 308.315 C 330.825 308.315,330.787 309.326,330.787 310.562 L 330.787 312.809 329.326 312.809 L 327.865 312.809 327.865 305.393 L 327.865 297.978 329.326 297.978 C 330.734 297.978,330.787 297.998,330.787 298.539 C 330.787 299.246,330.819 299.243,331.946 298.427 C 333.057 297.622,334.802 297.489,335.737 298.139 M147.865 298.764 C 147.865 299.722,147.900 299.725,148.978 298.858 C 149.496 298.442,150.207 298.117,150.762 298.042 L 151.685 297.918 151.685 299.493 L 151.685 301.068 150.728 300.960 C 150.201 300.901,149.342 300.968,148.818 301.109 L 147.865 301.366 147.865 305.065 L 147.865 308.764 146.517 308.764 L 145.169 308.764 145.169 303.371 L 145.169 297.978 146.517 297.978 L 147.865 297.978 147.865 298.764 M203.386 299.551 C 203.900 300.416,204.406 301.124,204.510 301.124 C 204.614 301.124,205.120 300.416,205.634 299.551 L 206.568 297.978 208.118 297.978 L 209.669 297.978 207.980 300.504 C 205.938 303.561,205.939 303.047,207.971 306.178 L 209.651 308.764 208.094 308.764 L 206.537 308.764 205.602 307.191 C 205.088 306.326,204.587 305.618,204.489 305.618 C 204.390 305.618,203.873 306.326,203.339 307.191 L 202.369 308.764 200.843 308.764 L 199.317 308.764 201.108 306.091 L 202.899 303.417 201.121 300.697 L 199.342 297.978 200.897 297.978 L 202.452 297.978 203.386 299.551 M214.389 301.798 C 214.814 303.899,215.222 305.618,215.296 305.618 C 215.370 305.618,215.867 303.894,216.401 301.788 L 217.370 297.957 218.617 298.023 L 219.864 298.090 220.775 301.725 C 221.276 303.725,221.744 305.419,221.816 305.489 C 221.888 305.560,222.294 303.924,222.717 301.854 L 223.487 298.090 224.918 298.022 C 226.018 297.970,226.325 298.022,226.244 298.247 C 226.186 298.408,225.546 300.840,224.822 303.652 L 223.506 308.764 222.006 308.764 L 220.505 308.764 219.792 305.899 C 218.690 301.472,218.631 301.278,218.439 301.488 C 218.340 301.597,217.870 303.278,217.395 305.225 L 216.532 308.764 215.007 308.764 C 214.169 308.764,213.483 308.729,213.483 308.686 C 213.483 308.643,212.876 306.268,212.135 303.408 C 211.393 300.548,210.787 298.156,210.787 298.092 C 210.787 298.029,211.423 297.978,212.201 297.978 L 213.616 297.978 214.389 301.798 M92.319 299.896 C 91.987 300.076,91.651 300.451,91.571 300.729 C 91.167 302.133,91.014 302.022,93.373 302.022 L 95.541 302.022 95.394 301.292 C 95.098 299.818,93.662 299.166,92.319 299.896 M137.147 299.778 C 136.635 299.984,135.955 301.066,135.955 301.674 C 135.955 301.963,136.301 302.022,137.978 302.022 L 140.000 302.022 140.000 301.338 C 140.000 299.989,138.568 299.206,137.147 299.778 M231.653 299.879 C 231.143 300.167,230.562 301.207,230.562 301.831 C 230.562 301.936,231.522 302.022,232.697 302.022 L 234.831 302.022 234.831 301.373 C 234.831 299.954,233.026 299.105,231.653 299.879 M270.545 300.207 C 270.158 300.594,269.888 301.103,269.888 301.443 L 269.888 302.022 271.910 302.022 C 273.799 302.022,273.933 301.992,273.933 301.562 C 273.933 299.727,271.855 298.897,270.545 300.207 M288.274 299.896 C 287.942 300.076,287.606 300.451,287.526 300.729 C 287.122 302.133,286.969 302.022,289.329 302.022 L 291.496 302.022 291.349 301.292 C 291.053 299.818,289.617 299.166,288.274 299.896 M343.475 299.764 C 342.840 300.022,342.499 300.484,342.333 301.314 L 342.191 302.022 344.242 302.022 L 346.292 302.022 346.292 301.338 C 346.292 300.005,344.858 299.204,343.475 299.764 M319.507 300.032 C 317.516 300.761,317.816 306.480,319.866 306.865 C 321.677 307.204,322.470 306.189,322.471 303.532 C 322.473 300.441,321.507 299.301,319.507 300.032 M331.159 300.508 C 330.821 300.755,330.780 301.161,330.836 303.710 L 330.899 306.629 331.986 306.698 C 334.300 306.846,335.577 304.229,334.583 301.377 C 334.196 300.266,332.188 299.756,331.159 300.508 M64.157 303.743 C 63.910 303.795,63.487 303.884,63.218 303.942 C 61.200 304.370,61.774 307.179,63.824 306.904 C 65.171 306.724,65.393 306.442,65.393 304.916 C 65.393 303.517,65.362 303.488,64.157 303.743 M193.483 303.840 C 191.241 304.273,191.057 306.966,193.270 306.966 C 194.754 306.966,195.281 306.435,195.281 304.938 C 195.281 303.444,195.342 303.481,193.483 303.840 M162.921 322.135 L 162.921 323.371 161.461 323.371 L 160.000 323.371 160.000 322.135 L 160.000 320.899 161.461 320.899 L 162.921 320.899 162.921 322.135 M212.360 323.722 L 212.360 326.545 213.396 325.800 C 216.400 323.643,218.989 325.795,218.989 330.449 C 218.989 334.811,216.722 337.182,213.609 336.076 C 212.837 335.802,212.463 335.756,212.406 335.929 C 212.357 336.076,211.771 336.180,210.993 336.180 L 209.663 336.180 209.663 328.539 L 209.663 320.899 211.011 320.899 L 212.360 320.899 212.360 323.722 M203.222 322.029 C 207.283 323.938,208.291 331.225,204.955 334.561 C 201.822 337.694,196.152 336.812,194.187 332.885 C 190.863 326.243,196.859 319.038,203.222 322.029 M100.225 322.921 L 100.225 324.270 97.416 324.270 L 94.607 324.270 94.607 325.618 L 94.607 326.966 97.191 326.966 L 99.775 326.966 99.775 328.315 L 99.775 329.663 97.191 329.663 L 94.607 329.663 94.607 331.573 L 94.607 333.483 97.416 333.483 L 100.225 333.483 100.225 334.831 L 100.225 336.180 95.843 336.180 L 91.461 336.180 91.461 328.876 L 91.461 321.573 95.843 321.573 L 100.225 321.573 100.225 322.921 M145.681 328.709 C 146.890 332.633,147.876 335.919,147.872 336.011 C 147.868 336.104,147.220 336.180,146.432 336.180 L 145.000 336.180 144.581 334.719 L 144.163 333.258 141.752 333.258 L 139.342 333.258 138.929 334.663 L 138.516 336.067 137.032 336.133 L 135.548 336.199 136.648 332.650 C 137.253 330.698,138.270 327.407,138.909 325.337 L 140.071 321.573 141.777 321.574 L 143.483 321.575 145.681 328.709 M127.191 323.708 L 127.191 325.393 128.539 325.393 L 129.888 325.393 129.888 326.404 L 129.888 327.416 128.539 327.416 L 127.191 327.416 127.191 330.534 C 127.191 334.138,127.260 334.284,128.878 334.102 L 129.888 333.988 129.888 335.070 L 129.888 336.152 128.876 336.304 C 125.245 336.848,124.273 335.601,124.271 330.393 L 124.270 327.416 123.708 327.416 C 123.192 327.416,123.146 327.333,123.146 326.404 C 123.146 325.476,123.192 325.393,123.708 325.393 C 124.257 325.393,124.270 325.356,124.270 323.708 L 124.270 322.022 125.730 322.022 L 127.191 322.022 127.191 323.708 M275.955 323.708 L 275.955 325.393 277.416 325.393 L 278.876 325.393 278.876 326.404 L 278.876 327.416 277.394 327.416 L 275.911 327.416 275.989 330.415 C 276.083 334.021,276.199 334.256,277.800 334.102 L 278.876 333.999 278.876 335.075 L 278.876 336.152 277.851 336.306 C 274.182 336.856,273.291 335.750,273.271 330.618 L 273.258 327.416 272.697 327.416 C 272.181 327.416,272.135 327.333,272.135 326.404 C 272.135 325.476,272.181 325.393,272.697 325.393 C 273.246 325.393,273.258 325.356,273.258 323.708 L 273.258 322.022 274.607 322.022 L 275.955 322.022 275.955 323.708 M199.205 324.052 C 196.101 324.987,195.782 332.364,198.791 333.621 C 201.593 334.792,203.483 332.881,203.483 328.876 C 203.483 325.096,201.851 323.256,199.205 324.052 M108.905 325.277 C 111.138 325.940,111.461 326.810,111.461 332.168 L 111.461 336.180 110.112 336.180 C 108.824 336.180,108.764 336.155,108.764 335.618 C 108.764 334.917,108.776 334.916,107.492 335.730 C 105.320 337.108,103.119 336.336,102.483 333.975 C 101.775 331.343,103.490 329.593,107.078 329.290 C 108.933 329.133,109.170 328.865,108.348 327.851 C 107.792 327.164,105.665 326.977,104.404 327.505 C 103.176 328.017,103.146 327.997,103.146 326.646 L 103.146 325.428 104.326 325.212 C 106.115 324.886,107.663 324.908,108.905 325.277 M120.770 325.484 C 121.553 325.811,121.573 325.850,121.573 327.058 L 121.573 328.296 120.473 327.744 C 118.550 326.778,116.404 327.029,116.404 328.220 C 116.404 328.897,116.756 329.122,118.315 329.439 C 121.196 330.027,122.351 331.410,121.775 333.583 C 121.133 336.001,118.055 337.071,114.648 336.059 L 113.483 335.713 113.483 334.384 L 113.483 333.055 114.554 333.611 C 116.585 334.664,119.101 334.550,119.101 333.404 C 119.101 332.654,118.766 332.442,116.914 332.021 C 114.546 331.482,113.483 330.403,113.483 328.535 C 113.483 325.781,117.477 324.108,120.770 325.484 M156.461 325.391 L 157.303 325.639 157.303 326.946 L 157.303 328.253 156.254 327.722 C 154.425 326.796,152.135 327.070,152.135 328.215 C 152.135 328.854,152.453 329.029,154.579 329.558 C 156.898 330.135,157.753 330.984,157.753 332.708 C 157.753 335.634,154.244 337.251,150.471 336.064 L 149.213 335.669 149.213 334.246 L 149.213 332.823 150.031 333.377 C 151.621 334.456,154.122 334.675,154.767 333.792 C 155.339 333.010,154.853 332.497,153.206 332.146 C 150.518 331.572,149.438 330.571,149.438 328.652 C 149.438 325.734,152.612 324.260,156.461 325.391 M172.036 325.526 C 173.631 326.310,173.810 326.919,173.894 331.854 L 173.967 336.180 172.601 336.180 C 171.295 336.180,171.236 336.156,171.236 335.618 C 171.236 334.917,171.248 334.916,169.964 335.730 C 167.677 337.180,165.207 336.178,164.827 333.645 C 164.463 331.216,166.133 329.632,169.438 329.275 C 171.058 329.100,171.121 329.071,171.060 328.536 C 170.920 327.306,168.675 326.753,166.875 327.505 C 165.648 328.017,165.618 327.997,165.618 326.646 L 165.618 325.428 166.798 325.199 C 168.533 324.864,171.002 325.017,172.036 325.526 M184.264 325.576 C 185.380 326.401,185.500 326.969,185.575 331.742 L 185.644 336.180 184.283 336.180 L 182.921 336.180 182.921 332.864 C 182.921 327.814,182.306 326.804,179.898 327.901 L 179.326 328.162 179.326 332.171 L 179.326 336.180 177.865 336.180 L 176.404 336.180 176.404 330.787 L 176.404 325.393 177.865 325.393 C 179.281 325.393,179.326 325.411,179.326 325.966 L 179.326 326.538 180.282 325.881 C 181.797 324.839,183.129 324.737,184.264 325.576 M228.185 325.484 C 228.969 325.812,228.989 325.850,228.989 327.061 L 228.989 328.302 227.944 327.746 C 226.140 326.787,223.820 327.054,223.820 328.222 C 223.820 328.857,224.578 329.272,226.231 329.544 C 229.912 330.150,230.484 334.440,227.088 335.982 C 225.952 336.498,223.661 336.533,222.063 336.059 L 220.899 335.713 220.899 334.373 C 220.899 332.885,220.931 332.850,221.720 333.470 C 223.173 334.613,226.339 334.609,226.472 333.464 C 226.562 332.686,226.233 332.460,224.392 332.033 C 222.487 331.591,221.453 330.851,221.102 329.679 C 220.098 326.328,224.280 323.852,228.185 325.484 M237.667 325.374 C 239.290 326.111,240.221 327.856,240.223 330.169 L 240.225 331.236 236.742 331.236 C 233.380 331.236,233.258 331.252,233.258 331.697 C 233.258 333.872,236.227 334.893,238.782 333.596 C 239.390 333.288,239.913 333.035,239.944 333.035 C 239.975 333.034,240.000 333.622,240.000 334.341 L 240.000 335.648 238.800 336.026 C 233.480 337.704,229.468 334.368,230.549 329.164 C 231.235 325.856,234.685 324.020,237.667 325.374 M268.346 325.540 C 269.915 326.459,269.992 326.737,270.069 331.701 L 270.139 336.180 268.777 336.180 C 267.475 336.180,267.416 336.155,267.416 335.618 C 267.416 334.916,267.342 334.918,266.380 335.652 C 264.040 337.437,261.126 336.005,261.124 333.068 C 261.123 330.644,263.099 329.213,266.452 329.213 C 267.313 329.213,267.416 329.157,267.416 328.687 C 267.416 327.415,265.263 326.814,263.166 327.500 C 262.553 327.701,261.994 327.865,261.924 327.865 C 261.855 327.865,261.798 327.323,261.798 326.661 L 261.798 325.456 262.978 325.215 C 264.693 324.865,267.481 325.034,268.346 325.540 M288.063 325.630 C 291.709 327.679,291.365 334.479,287.535 336.079 C 282.975 337.984,278.832 333.433,280.542 328.399 C 281.581 325.340,285.186 324.013,288.063 325.630 M140.854 327.910 L 140.067 330.674 141.634 330.741 C 142.495 330.777,143.244 330.764,143.297 330.710 C 143.413 330.594,142.016 325.583,141.795 325.326 C 141.711 325.228,141.287 326.390,140.854 327.910 M248.764 326.798 L 248.765 328.427 247.472 328.354 C 246.761 328.314,245.902 328.388,245.562 328.517 L 244.944 328.753 244.944 332.466 L 244.944 336.180 243.596 336.180 L 242.247 336.180 242.247 330.787 L 242.247 325.393 243.596 325.393 L 244.944 325.393 244.944 326.206 L 244.944 327.020 245.729 326.421 C 248.018 324.675,248.764 324.767,248.764 326.798 M299.102 326.798 L 299.102 328.427 297.809 328.354 C 297.098 328.314,296.239 328.388,295.899 328.517 L 295.281 328.753 295.281 332.466 L 295.281 336.180 293.933 336.180 L 292.584 336.180 292.584 330.787 L 292.584 325.393 293.919 325.393 L 295.254 325.393 295.324 326.186 L 295.393 326.979 296.180 326.333 C 296.976 325.679,297.991 325.219,298.708 325.186 C 299.048 325.171,299.101 325.389,299.102 326.798 M162.697 330.787 L 162.697 336.180 161.348 336.180 L 160.000 336.180 160.000 330.787 L 160.000 325.393 161.348 325.393 L 162.697 325.393 162.697 330.787 M253.461 328.933 C 254.004 330.879,254.523 332.615,254.614 332.790 C 254.785 333.120,254.828 332.991,256.201 328.034 L 256.932 325.393 258.329 325.393 L 259.727 325.393 258.299 329.831 C 257.513 332.272,256.731 334.674,256.560 335.169 L 256.248 336.067 254.662 336.133 L 253.076 336.199 252.732 335.122 C 252.543 334.530,251.838 332.326,251.165 330.225 C 250.493 328.124,249.873 326.177,249.787 325.899 C 249.638 325.412,249.684 325.393,251.052 325.394 L 252.472 325.394 253.461 328.933 M304.057 329.007 C 304.690 330.994,305.253 332.575,305.308 332.519 C 305.363 332.464,305.888 330.864,306.474 328.962 L 307.539 325.506 308.938 325.439 C 309.708 325.402,310.336 325.452,310.335 325.551 C 310.334 325.650,309.188 328.966,307.789 332.921 L 305.244 340.112 303.746 340.179 C 302.921 340.215,302.247 340.170,302.247 340.078 C 302.247 339.986,302.561 339.078,302.945 338.061 L 303.643 336.213 301.821 330.899 C 300.820 327.977,300.000 325.542,300.000 325.489 C 300.000 325.437,300.654 325.393,301.454 325.393 L 302.907 325.393 304.057 329.007 M234.138 327.254 C 232.476 328.530,232.952 329.438,235.281 329.438 L 237.303 329.438 237.303 328.691 C 237.303 327.288,235.286 326.372,234.138 327.254 M284.096 327.641 C 283.041 328.624,282.837 332.211,283.765 333.454 C 284.433 334.349,286.373 334.323,287.054 333.411 C 287.621 332.652,287.730 329.579,287.232 328.400 C 286.726 327.202,285.012 326.788,284.096 327.641 M213.034 327.706 C 212.483 327.985,212.471 328.047,212.409 330.942 L 212.347 333.894 213.027 334.044 C 214.965 334.469,216.025 333.477,216.144 331.128 C 216.301 328.020,215.077 326.674,213.034 327.706 M106.574 331.230 C 104.478 331.728,104.609 334.259,106.731 334.259 C 108.183 334.259,108.764 333.682,108.764 332.242 L 108.764 331.011 108.034 331.034 C 107.632 331.047,106.975 331.135,106.574 331.230 M169.046 331.230 C 166.950 331.728,167.081 334.259,169.203 334.259 C 170.654 334.259,171.236 333.682,171.236 332.242 L 171.236 331.011 170.506 331.034 C 170.104 331.047,169.447 331.135,169.046 331.230 M265.180 331.240 C 263.216 331.702,263.346 334.259,265.333 334.259 C 266.834 334.259,267.416 333.696,267.416 332.242 L 267.416 331.011 266.685 331.034 C 266.284 331.047,265.606 331.139,265.180 331.240 M315.831 359.293 C 315.490 359.599,312.443 361.801,309.936 363.553 L 307.625 365.169 199.905 365.169 L 92.185 365.169 89.407 363.221 C 87.879 362.150,85.982 360.784,85.191 360.187 L 83.753 359.101 199.899 359.101 C 263.870 359.101,315.949 359.187,315.831 359.293 " stroke="none" fill="#6454ac" fill-rule="evenodd"></path><path id="path2" d="" stroke="none" fill="#100d0d4" fill-rule="evenodd"></path><path id="path3" d="" stroke="none" fill="#100d0d4" fill-rule="evenodd"></path><path id="path4" d="" stroke="none" fill="#100d0d4" fill-rule="evenodd"></path></g></svg>